<svg width="53" height="53" viewBox="0 0 53 53" fill="none" xmlns="http://www.w3.org/2000/svg">
<rect x="0.5" width="52.346" height="52.346" rx="26.173" fill="#F8F8F8"/>
<g clip-path="url(#clip0_522_24123)">
<path d="M26.4985 16.1745C27.4163 16.1585 28.3036 16.2602 29.1605 16.4797C30.0173 16.6991 30.8205 17.0205 31.5702 17.4436C32.3199 17.8668 33.0027 18.3758 33.6187 18.9706C34.2346 19.5654 34.7672 20.2333 35.2164 20.9743C35.6656 21.7153 36.0147 22.5068 36.2638 23.3489C36.513 24.1911 36.6488 25.0743 36.6715 25.9985C36.6875 26.9163 36.5858 27.8036 36.3663 28.6605C36.1469 29.5173 35.8256 30.3206 35.4024 31.0702C34.9792 31.8199 34.4702 32.5027 33.8754 33.1187C33.2806 33.7346 32.6127 34.2672 31.8717 34.7164C31.1308 35.1656 30.3392 35.5147 29.4971 35.7639C28.6549 36.013 27.7718 36.1488 26.8475 36.1715C25.9297 36.1875 25.0424 36.0858 24.1855 35.8663C23.3287 35.6469 22.5255 35.3256 21.7758 34.9024C21.0261 34.4792 20.3433 33.9702 19.7273 33.3754C19.1114 32.7806 18.5788 32.1127 18.1296 31.3717C17.6804 30.6308 17.3313 29.8425 17.0823 29.0068C16.8333 28.1712 16.6974 27.2848 16.6745 26.3475C16.6585 25.4297 16.7602 24.5424 16.9797 23.6856C17.1991 22.8287 17.5204 22.0255 17.9436 21.2758C18.3668 20.5261 18.8758 19.8433 19.4706 19.2273C20.0654 18.6114 20.7333 18.0788 21.4743 17.6296C22.2152 17.1804 23.0035 16.8313 23.8392 16.5823C24.6748 16.3333 25.5612 16.1974 26.4985 16.1745ZM26.8257 34.9217C27.6264 34.9077 28.3959 34.7901 29.1344 34.5688C29.8728 34.3476 30.5642 34.0425 31.2085 33.6536C31.8529 33.2647 32.4372 32.7954 32.9616 32.2458C33.4859 31.6962 33.9313 31.0992 34.2977 30.4547C34.6641 29.8101 34.9481 29.1085 35.1498 28.3496C35.3514 27.5908 35.442 26.8143 35.4217 26.0203C35.4077 25.2196 35.2901 24.4501 35.0688 23.7117C34.8476 22.9732 34.5425 22.2818 34.1536 21.6375C33.7647 20.9931 33.2954 20.4088 32.7458 19.8844C32.1962 19.3601 31.5992 18.9147 30.9546 18.5483C30.3101 18.1819 29.6085 17.8979 28.8496 17.6962C28.0908 17.4946 27.3143 17.404 26.5203 17.4243C25.7196 17.4383 24.9501 17.5559 24.2116 17.7772C23.4732 17.9984 22.7818 18.3035 22.1375 18.6924C21.4931 19.0813 20.9088 19.5506 20.3844 20.1002C19.8601 20.6498 19.4147 21.2469 19.0483 21.8914C18.6819 22.5359 18.3979 23.2376 18.1962 23.9964C17.9946 24.7552 17.904 25.5317 17.9243 26.3257C17.9383 27.1264 18.0559 27.8959 18.2772 28.6344C18.4984 29.3728 18.8035 30.0642 19.1924 30.7086C19.5813 31.3529 20.0506 31.9373 20.6002 32.4616C21.1498 32.9859 21.7468 33.4313 22.3914 33.7977C23.0359 34.1641 23.7375 34.4482 24.4964 34.6498C25.2552 34.8514 26.0317 34.9421 26.8257 34.9217ZM31.8392 25.0182L32.7333 25.8817L26.7855 32.0606L20.6062 26.0933L21.4697 25.1992L26.1189 29.6793L25.939 19.9349L27.1888 19.9131L27.3685 29.6477L31.8392 25.0182Z" fill="#111827"/>
</g>
<defs>
<clipPath id="clip0_522_24123">
<rect width="20" height="20" fill="white" transform="translate(16.5 16.3491) rotate(-1)"/>
</clipPath>
</defs>
</svg>
