<svg width="52" height="53" viewBox="0 0 52 53" fill="none" xmlns="http://www.w3.org/2000/svg">
<rect y="0.346008" width="52" height="52" rx="26" fill="#F8F8F8"/>
<path d="M33.5 20.096H18.5C18.1685 20.096 17.8505 20.2277 17.6161 20.4621C17.3817 20.6965 17.25 21.0145 17.25 21.346V31.346C17.25 31.6775 17.3817 31.9955 17.6161 32.2299C17.8505 32.4643 18.1685 32.596 18.5 32.596H33.5C33.8315 32.596 34.1495 32.4643 34.3839 32.2299C34.6183 31.9955 34.75 31.6775 34.75 31.346V21.346C34.75 21.0145 34.6183 20.6965 34.3839 20.4621C34.1495 20.2277 33.8315 20.096 33.5 20.096ZM33.5 21.346V23.221H18.5V21.346H33.5ZM18.5 31.346V24.471H33.5V31.346H18.5Z" fill="#111827"/>
<path d="M19.75 28.846H26V30.096H19.75V28.846Z" fill="#111827"/>
</svg>
