<svg width="53" height="53" viewBox="0 0 53 53" fill="none" xmlns="http://www.w3.org/2000/svg">
<rect x="0.5" y="0.346008" width="52" height="52" rx="26" fill="#F8F8F8"/>
<path fill-rule="evenodd" clip-rule="evenodd" d="M26.4997 19.6793C26.9599 19.6793 27.333 20.0524 27.333 20.5127V32.1793C27.333 32.6396 26.9599 33.0127 26.4997 33.0127C26.0394 33.0127 25.6663 32.6396 25.6663 32.1793V20.5127C25.6663 20.0524 26.0394 19.6793 26.4997 19.6793Z" fill="#111827"/>
<path fill-rule="evenodd" clip-rule="evenodd" d="M19.833 26.346C19.833 25.8858 20.2061 25.5127 20.6663 25.5127H32.333C32.7932 25.5127 33.1663 25.8858 33.1663 26.346C33.1663 26.8062 32.7932 27.1793 32.333 27.1793H20.6663C20.2061 27.1793 19.833 26.8062 19.833 26.346Z" fill="#111827"/>
</svg>
