<svg width="52" height="53" viewBox="0 0 52 53" fill="none" xmlns="http://www.w3.org/2000/svg">
<rect y="0.346008" width="52" height="52" rx="26" fill="#F8F8F8"/>
<g clip-path="url(#clip0_522_24113)">
<path d="M26 36.346C25.082 36.346 24.1966 36.2288 23.3438 35.9944C22.4909 35.7601 21.6934 35.4248 20.9512 34.9886C20.209 34.5524 19.5352 34.0316 18.9297 33.4261C18.3242 32.8206 17.8034 32.1435 17.3672 31.3948C16.931 30.6461 16.5957 29.8486 16.3613 29.0023C16.127 28.1559 16.0065 27.2705 16 26.346C16 25.428 16.1172 24.5426 16.3516 23.6898C16.5859 22.8369 16.9212 22.0394 17.3574 21.2972C17.7936 20.555 18.3145 19.8812 18.9199 19.2757C19.5254 18.6702 20.2025 18.1494 20.9512 17.7132C21.6999 17.277 22.4974 16.9417 23.3438 16.7073C24.1901 16.473 25.0755 16.3525 26 16.346C26.918 16.346 27.8034 16.4632 28.6563 16.6976C29.5091 16.9319 30.3066 17.2672 31.0488 17.7034C31.791 18.1396 32.4648 18.6605 33.0703 19.2659C33.6758 19.8714 34.1966 20.5485 34.6328 21.2972C35.069 22.0459 35.4043 22.8401 35.6387 23.68C35.873 24.5198 35.9935 25.4085 36 26.346C36 27.264 35.8828 28.1494 35.6484 29.0023C35.4141 29.8551 35.0788 30.6526 34.6426 31.3948C34.2064 32.137 33.6855 32.8109 33.0801 33.4163C32.4746 34.0218 31.7975 34.5426 31.0488 34.9788C30.3001 35.415 29.5059 35.7503 28.666 35.9847C27.8262 36.2191 26.9375 36.3395 26 36.346ZM26 17.596C25.1992 17.596 24.4277 17.7002 23.6855 17.9085C22.9434 18.1168 22.2467 18.4098 21.5957 18.7874C20.9447 19.165 20.3522 19.624 19.8184 20.1644C19.2845 20.7047 18.8288 21.2939 18.4512 21.9319C18.0736 22.57 17.7773 23.2666 17.5625 24.0218C17.3477 24.777 17.2435 25.5517 17.25 26.346C17.25 27.1468 17.3542 27.9183 17.5625 28.6605C17.7708 29.4026 18.0638 30.0993 18.4414 30.7503C18.819 31.4013 19.278 31.9938 19.8184 32.5276C20.3587 33.0615 20.9479 33.5172 21.5859 33.8948C22.224 34.2724 22.9206 34.5687 23.6758 34.7835C24.431 34.9984 25.2057 35.1025 26 35.096C26.8008 35.096 27.5723 34.9918 28.3145 34.7835C29.0566 34.5752 29.7533 34.2822 30.4043 33.9046C31.0553 33.527 31.6478 33.068 32.1816 32.5276C32.7155 31.9873 33.1712 31.3981 33.5488 30.7601C33.9264 30.122 34.2227 29.4254 34.4375 28.6702C34.6523 27.915 34.7565 27.1403 34.75 26.346C34.75 25.5452 34.6458 24.7737 34.4375 24.0316C34.2292 23.2894 33.9362 22.5928 33.5586 21.9417C33.181 21.2907 32.722 20.6982 32.1816 20.1644C31.6413 19.6305 31.0521 19.1748 30.4141 18.7972C29.776 18.4196 29.0794 18.1234 28.3242 17.9085C27.569 17.6937 26.7943 17.5895 26 17.596ZM20.8145 27.4105L19.9355 26.5316L25.9902 20.4573L32.0645 26.5316L31.1855 27.4105L26.6152 22.8499L26.625 32.596H25.375L25.3652 22.8597L20.8145 27.4105Z" fill="#111827"/>
</g>
<defs>
<clipPath id="clip0_522_24113">
<rect width="20" height="20" fill="white" transform="matrix(-1 0 0 -1 36 36.346)"/>
</clipPath>
</defs>
</svg>
